<svg viewBox="0 0 189.68 54.2" xmlns="http://www.w3.org/2000/svg"><g fill="#fff"><path d="m47.28 9.2 2.4-.2v3.2l-2.4.3"/><g transform="translate(-.02)"><path d="m61.7 29.3v8h9.2v-8h2.5v19h-2.5v-8.9h-9.2v8.9h-2.5v-19z"/><path d="m89.3 41.4c0 5.1-3.5 7.3-6.8 7.3-3.7 0-6.6-2.7-6.6-7 0-4.6 3-7.3 6.8-7.3 4-.1 6.6 2.8 6.6 7zm-10.8.1c0 3 1.7 5.3 4.2 5.3s4.2-2.2 4.2-5.3c0-2.3-1.2-5.3-4.1-5.3-3.1 0-4.3 2.7-4.3 5.3z"/><path d="m91.8 38.4c0-1.4 0-2.6-.1-3.7h2.2l.1 2.2a4.71 4.71 0 0 1 4.3-2.5 4 4 0 0 1 3.9 2.7h.1a5.53 5.53 0 0 1 1.5-1.8 4.7 4.7 0 0 1 3-1c1.8 0 4.5 1.2 4.5 5.9v8h-2.4v-7.7c0-2.6-1-4.2-3-4.2a3.09 3.09 0 0 0 -2.9 2.3 4.3 4.3 0 0 0 -.2 1.2v8.4h-2.4v-8.2c0-2.2-1-3.8-2.9-3.8a3.32 3.32 0 0 0 -3.1 2.5 5 5 0 0 0 -.2 1.2v8.2h-2.4z"/><path d="m116.1 41.8c.1 3.4 2.2 4.8 4.8 4.8a9.71 9.71 0 0 0 3.9-.7l.4 1.8a11.11 11.11 0 0 1 -4.6.9c-4.3 0-6.9-2.9-6.9-7.1s2.5-7.5 6.5-7.5c4.6 0 5.8 4 5.8 6.6 0 .5-.1.9-.1 1.2zm7.5-1.8c0-1.6-.7-4.1-3.5-4.1-2.6 0-3.7 2.4-3.9 4.1z"/><path d="m131.7 42.2-2 6.1h-2.6l6.6-19.4h3l6.6 19.4h-2.7l-2.1-6.1zm6.4-1.9-1.9-5.6c-.4-1.3-.7-2.4-1-3.5h-.1c-.3 1.2-.6 2.3-1 3.5l-1.9 5.6z"/><path d="m145.8 34.4 1.8 7.1a45 45 0 0 1 1 4.4h.1c.3-1.4.8-2.9 1.2-4.4l2.3-7.1h2.1l2.2 7c.5 1.7.9 3.1 1.2 4.6h.1a29.32 29.32 0 0 1 1.1-4.5l2-7h2.5l-4.4 13.8h-2.3l-2.1-6.7a34.47 34.47 0 0 1 -1.2-4.6h-.1a30.89 30.89 0 0 1 -1.3 4.6l-2.2 6.6h-2.3l-4.2-13.9h2.5z"/><path d="m175.1 45a30.77 30.77 0 0 0 .2 3.3h-2.3l-.2-1.8h-.1a5.28 5.28 0 0 1 -4.3 2.1 4 4 0 0 1 -4.3-4c0-3.4 3-5.2 8.4-5.2v-.3c0-1.2-.3-3.2-3.2-3.2a6.91 6.91 0 0 0 -3.6 1l-.6-1.7a9.21 9.21 0 0 1 4.6-1.2c4.3 0 5.3 2.9 5.3 5.7v5.3zm-2.5-3.8c-2.8-.1-5.9.4-5.9 3.1a2.25 2.25 0 0 0 2.4 2.4 3.6 3.6 0 0 0 3.4-2.3 2.2 2.2 0 0 0 .1-.8z"/><path d="m179.2 34.4 3.1 8.2c.3.9.7 2 .9 2.9h.1c.3-.8.5-1.9.9-2.9l2.8-8.2h2.7l-3.8 9.9c-1.6 4.2-2.9 6.7-4.8 8.3a6.44 6.44 0 0 1 -3.1 1.6l-.6-2.1a6.91 6.91 0 0 0 2.2-1.2 6.42 6.42 0 0 0 2.1-2.8 3.93 3.93 0 0 0 .2-.6c0-.1-.1-.3-.2-.7l-5.2-12.5h2.7z"/><path d="m141.8 4.6a3.8 3.8 0 1 1 -3.8-3.7 3.65 3.65 0 0 1 3.8 3.7zm-6.6 0a2.85 2.85 0 1 0 5.7 0 2.85 2.85 0 1 0 -5.7 0zm2.3 1.9h-.9v-3.7c.3 0 .8-.1 1.4-.1a2.06 2.06 0 0 1 1.3.3 1 1 0 0 1 .4.8c0 .5-.3.7-.8.9.4.1.5.4.7.9s.2.8.3.9h-.9a3 3 0 0 1 -.3-.9.7.7 0 0 0 -.8-.6h-.4zm0-2.1h.4c.5 0 .9-.2.9-.5s-.3-.6-.8-.6h-.5z"/><path d="m40.9 0h-25.6l-15 17.8 5.3-.4v19.2l-4 .6a1.9 1.9 0 0 0 -1.5 2.4 2.11 2.11 0 0 0 2 1.5l3.5-.6v5.1l25.4 4.7 19.9-4.5v-27.9l5.5-.5zm-5.2 21.2 5.5-.5v7.3l-5.6.7zm-28.3 23.1v-4l11-1.8a1.73 1.73 0 0 0 1.7-2.1c-.1-1.9-2.1-1.6-2.1-1.6l-10.6 1.6v-19.5l11.2-13.2 12.4 13.8v31.1zm28.2-5.7v-7.6l5.6-.8v7.3zm12.5-2.2-4.6.8v-7.2l4.6-.7zm-4.6-16 4.6-.4v7.1l-4.6.6"/><path d="m23.8 18a6.77 6.77 0 0 0 -5-2.5h-.3a6.43 6.43 0 0 0 -4.8 2.7 9.38 9.38 0 0 0 -1.9 5.8v.6a9.74 9.74 0 0 0 2.3 5.9 6.77 6.77 0 0 0 5 2.5h.3a6.43 6.43 0 0 0 4.8-2.7 9.38 9.38 0 0 0 1.9-5.8v-.6a10.39 10.39 0 0 0 -2.3-5.9zm-.8 11.4a5.09 5.09 0 0 1 -3.7 2.1h-.2a4.88 4.88 0 0 1 -3.9-2 8 8 0 0 1 -1.9-5v-.5a8.29 8.29 0 0 1 1.6-5 5.1 5.1 0 0 1 3.8-2.1h.2a4.88 4.88 0 0 1 3.9 2 8 8 0 0 1 1.9 5v.5a8.81 8.81 0 0 1 -1.7 5z"/><path d="m16.4 24.4c-.1-2.5.7-4.7 1.9-5.5-2.1.1-3.7 2.6-3.5 5.6s2 5.3 4.1 5.2c-1.3-.7-2.3-2.8-2.5-5.3z"/><path d="m63.6 14.7-1.9 5.7h-2.4l6.2-18.2h2.8l6.2 18.2h-2.5l-1.9-5.7zm6-1.8-1.8-5.3a27.74 27.74 0 0 1 -.9-3.3h-.1l-.9 3.3-1.8 5.3z"/><path d="m76.4 20.4c.1-.9.1-2.2.1-3.4v-15.8h2.4v8.2h.1a4.85 4.85 0 0 1 4.4-2.4c3.2 0 5.5 2.7 5.5 6.7 0 4.7-3 7-5.9 7a4.62 4.62 0 0 1 -4.4-2.5h-.1l-.1 2.2zm2.5-5.2c0 .3.1.6.1.9a3.64 3.64 0 0 0 3.6 2.8c2.5 0 4-2 4-5 0-2.6-1.4-4.9-3.9-4.9a3.79 3.79 0 0 0 -3.6 2.9 3.08 3.08 0 0 0 -.1 1v2.3z"/><path d="m91.4 11.4c0-1.5 0-2.9-.1-4.1h2.1l.1 2.6h.1a3.88 3.88 0 0 1 3.6-2.9 1.48 1.48 0 0 1 .7.1v2.2a2 2 0 0 0 -.8-.1 3.34 3.34 0 0 0 -3.2 3.1 3.75 3.75 0 0 0 -.1 1.1v7h-2.4z"/><path d="m102.5 3.7a1.47 1.47 0 0 1 -1.5 1.5 1.39 1.39 0 0 1 -1.4-1.5 1.47 1.47 0 0 1 1.5-1.5 1.39 1.39 0 0 1 1.4 1.5zm-2.7 16.7v-13.1h2.4v13.1z"/><path d="m108.5 3.6v3.8h3.4v1.8h-3.4v7.1c0 1.6.5 2.5 1.8 2.5a4.64 4.64 0 0 0 1.4-.2l.1 1.8a5.84 5.84 0 0 1 -2.1.3 3.62 3.62 0 0 1 -2.6-1c-.7-.7-.9-1.9-.9-3.4v-7.2h-2v-1.8h2v-3.1z"/><path d="m115.2 14.3c.1 3.2 2.1 4.5 4.5 4.5a8.15 8.15 0 0 0 3.6-.7l.4 1.7a10.34 10.34 0 0 1 -4.4.8c-4 0-6.4-2.7-6.4-6.6s2.3-7.1 6.1-7.1c4.3 0 5.4 3.8 5.4 6.2 0 .5-.1.9-.1 1.1h-9.1zm7-1.7c0-1.5-.6-3.9-3.3-3.9-2.4 0-3.5 2.2-3.7 3.9z"/><path d="m126.9 1.2h2.4v19.2h-2.4z"/></g></g></svg>
