<svg height="16" viewBox="0 0 96 16" width="96" xmlns="http://www.w3.org/2000/svg" xmlns:xlink="http://www.w3.org/1999/xlink"><defs><linearGradient id="a" x1="100%" x2="91.84%" y1="50%" y2="50%"><stop offset=".948" stop-color="#fff"/><stop offset="1" stop-color="#fff" stop-opacity="0"/></linearGradient><path id="b" d="m87.992 0c-4.416 0-7.992 3.584-7.992 8s3.576 8 7.992 8c4.424 0 8.008-3.584 8.008-8s-3.584-8-8.008-8zm2.584 12.312-2.576-1.552-2.576 1.552c-.304.184-.68-.088-.6-.432l.68-2.928-2.264-1.96c-.264-.232-.12-.672.232-.704l2.992-.256 1.168-2.76c.136-.328.6-.328.736 0l1.168 2.752 2.992.256c.352.032.496.472.224.704l-2.264 1.96.68 2.936c.08.344-.288.616-.592.432zm-22.584-12.312c4.424 0 8.008 3.584 8.008 8s-3.584 8-8.008 8c-4.416 0-7.992-3.584-7.992-8s3.576-8 7.992-8zm2.584 12.312c.304.184.672-.088.592-.432l-.68-2.936 2.264-1.96c.272-.232.128-.672-.224-.704l-2.992-.256-1.168-2.752c-.136-.328-.6-.328-.736 0l-1.168 2.76-2.992.256c-.352.032-.496.472-.232.704l2.264 1.96-.68 2.928c-.08.344.296.616.6.432l2.576-1.552zm-22.584-12.312c4.424 0 8.008 3.584 8.008 8s-3.584 8-8.008 8c-4.416 0-7.992-3.584-7.992-8s3.576-8 7.992-8zm2.584 12.312c.304.184.672-.088.592-.432l-.68-2.936 2.264-1.96c.272-.232.128-.672-.224-.704l-2.992-.256-1.168-2.752c-.136-.328-.6-.328-.736 0l-1.168 2.76-2.992.256c-.352.032-.496.472-.232.704l2.264 1.96-.68 2.928c-.08.344.296.616.6.432l2.576-1.552zm-22.584-12.312c4.424 0 8.008 3.584 8.008 8s-3.584 8-8.008 8c-4.416 0-7.992-3.584-7.992-8s3.576-8 7.992-8zm2.584 12.312c.304.184.672-.088.592-.432l-.68-2.936 2.264-1.96c.272-.232.128-.672-.224-.704l-2.992-.256-1.168-2.752c-.136-.328-.6-.328-.736 0l-1.168 2.76-2.992.256c-.352.032-.496.472-.232.704l2.264 1.96-.68 2.928c-.08.344.296.616.6.432l2.576-1.552zm-22.584-12.312c4.424 0 8.008 3.584 8.008 8s-3.584 8-8.008 8c-4.416 0-7.992-3.584-7.992-8s3.576-8 7.992-8zm2.584 12.312c.304.184.672-.088.592-.432l-.68-2.936 2.264-1.96c.272-.232.128-.672-.224-.704l-2.992-.256-1.168-2.752c-.136-.328-.6-.328-.736 0l-1.168 2.76-2.992.256c-.352.032-.496.472-.232.704l2.264 1.96-.68 2.928c-.08.344.296.616.6.432l2.576-1.552z"/></defs><g fill="none"><use fill="#eec315" xlink:href="#b"/><use fill="url(#a)" fill-opacity=".6" xlink:href="#b"/></g></svg>