<svg viewBox="0 0 159.62 180.67" xmlns="http://www.w3.org/2000/svg"><g fill="#fff" transform="translate(-218.69 -330.5)"><path d="m355.13 426.1a29.12 29.12 0 0 0 -2.13-10.21c-1-2.52-2.13-5-3.25-7.43q-13.35-29.08-28-57.54c-1.37-2.65-2.71-5.31-4.17-7.92a27.79 27.79 0 0 0 -5.23-7 20.41 20.41 0 0 0 -12.75-5.51h-2.18a20.35 20.35 0 0 0 -13.09 5.68 28.44 28.44 0 0 0 -5.06 6.82c-1.43 2.57-2.76 5.19-4.11 7.8q-9.82 19.09-19.08 38.47c-3.68 7.73-7.32 15.47-10.83 23.28a37.92 37.92 0 0 0 -3.25 10.17 26 26 0 0 0 15.33 27.59 26.47 26.47 0 0 0 12 2.12 32.78 32.78 0 0 0 15.41-5.14 67 67 0 0 0 13.72-11.82 69.68 69.68 0 0 0 12.67 11.16 33.92 33.92 0 0 0 15.27 5.71 26 26 0 0 0 26.9-16.23 25.93 25.93 0 0 0 1.83-10zm-56.68-2.31c-1.5-1.76-2.81-3.66-4.14-5.55a68 68 0 0 1 -5.87-10.24 33.62 33.62 0 0 1 -2.83-9.39 16.3 16.3 0 0 1 .72-7.75 11.43 11.43 0 0 1 4.55-5.62 14.14 14.14 0 0 1 16.44 1 12 12 0 0 1 3.95 7.71 24.88 24.88 0 0 1 -1.8 11.43c-2.57 6.71-6.63 12.74-11.02 18.41zm48.39 8.21a18.31 18.31 0 0 1 -8.63 10.82 18.82 18.82 0 0 1 -12.2 2.07c-5.28-.82-10-3.62-14.11-6.93a75.31 75.31 0 0 1 -8.33-8 95.84 95.84 0 0 0 10.93-16.56c2.58-5.2 4.54-10.84 4.72-16.68a21.89 21.89 0 0 0 -2.32-10.79 19.81 19.81 0 0 0 -11-9.45 22.5 22.5 0 0 0 -13.63-.42 19.72 19.72 0 0 0 -14.56 17.76c-.47 5.47.9 10.91 3 15.94a84.18 84.18 0 0 0 12.59 20.14 69.59 69.59 0 0 1 -7.31 7.26c-4 3.43-8.69 6.41-13.94 7.55a19.14 19.14 0 0 1 -12.72-1.49 18.31 18.31 0 0 1 -9.38-11.48 18.88 18.88 0 0 1 .41-11.06c1-2.93 2.36-5.72 3.62-8.54q13.2-28.77 27.69-56.93c1.44-2.79 2.86-5.59 4.38-8.34a18.9 18.9 0 0 1 4.74-5.94 12.68 12.68 0 0 1 15.7.29 21.94 21.94 0 0 1 5 6.75c3 5.6 5.85 11.27 8.72 16.94q12.27 24.29 23.58 49a59.74 59.74 0 0 1 3.13 7.81 18.86 18.86 0 0 1 -.08 10.28z"/><path d="m255.75 467.54a5 5 0 1 1 -1.81.77 5 5 0 0 1 1.81-.77z"/><path d="m272.39 483.7a9.77 9.77 0 0 1 5.73-2.95 13.45 13.45 0 0 1 4.29.27v6.81a11.41 11.41 0 0 0 -6.77.11 8.07 8.07 0 0 0 -3.1 2c-.19.16-.14.41-.16.64v19a2.11 2.11 0 0 1 -.07.75c-2.45.05-4.91 0-7.36 0q0-14.51 0-29h6.19a1.1 1.1 0 0 1 1.11.65 6.07 6.07 0 0 1 .12 1.65z"/><path d="m325.22 483.72a10.56 10.56 0 0 1 7.59-3 12.27 12.27 0 0 1 8.24 2.71 8.93 8.93 0 0 1 3.12 4.68 24.73 24.73 0 0 1 .58 7v15.37c-2.47 0-4.94 0-7.41 0v-15.43c0-1.91.09-4-.92-5.65a4.41 4.41 0 0 0 -3.44-2 8.09 8.09 0 0 0 -7 2.48 1 1 0 0 0 -.33.71c0 .79.1 1.59 0 2.38-.09 1.08.06 2.15 0 3.23v6.11c-.14 2.7.11 5.4-.05 8.09h-7.38c0-9.67 0-19.35 0-29h5.72a1.09 1.09 0 0 1 1.15.74 7.59 7.59 0 0 1 .1 1.58z"/><path d="m253 510.42c0-9.67 0-19.35 0-29h7.36v29z"/><path d="m248.47 481.4h-5.83c-.51 0-1.17 0-1.42.56a5.14 5.14 0 0 0 -.16 1.75 9.87 9.87 0 0 0 -6.23-3 14.92 14.92 0 0 0 -10.25 2.87 14.45 14.45 0 0 0 -5.08 7.12 18.91 18.91 0 0 0 -.81 4.08v2a15.32 15.32 0 0 0 5.31 10.97 15 15 0 0 0 8.74 3.42h1.65a10 10 0 0 0 6.7-3.08 5.25 5.25 0 0 0 .16 1.77 1.25 1.25 0 0 0 1.23.56h6q-.01-14.51-.01-29.02zm-7.64 20a7.82 7.82 0 0 1 -6.18 2.78 8.1 8.1 0 0 1 -8.44-9.78 7.65 7.65 0 0 1 2.81-5 9.1 9.1 0 0 1 5-1.81 8.09 8.09 0 0 1 7 3.08c.09 3.16 0 6.32 0 9.48.03.4.15.9-.19 1.23z"/><path d="m314 489.7a14.44 14.44 0 0 0 -5.74-6.8 15 15 0 0 0 -8.91-2.18 10 10 0 0 0 -6.55 3c0-5.42 0-10.84 0-16.26-2.47 0-4.95 0-7.42 0v43h6.14a1.13 1.13 0 0 0 1.2-.75 9.53 9.53 0 0 0 .07-1.6 9.91 9.91 0 0 0 6.78 3.1h1.51a14.78 14.78 0 0 0 10.72-5.36 16.26 16.26 0 0 0 2.2-16.15zm-8.64 12.21a9 9 0 0 1 -6.19 2.26 7.84 7.84 0 0 1 -6.15-2.83.92.92 0 0 1 -.23-.69q0-5 0-10a8.2 8.2 0 0 1 6-3.13 9 9 0 0 1 6.56 2.29 8.76 8.76 0 0 1 0 12.06z"/><path d="m375 486.11a14.73 14.73 0 0 0 -13.53-5.28 9.81 9.81 0 0 0 -5.54 2.88c0-5.42 0-10.84 0-16.26h-7.4q0 21.48 0 43h5.84c.51 0 1.15 0 1.41-.55a5.39 5.39 0 0 0 .16-1.79 10 10 0 0 0 6.67 3.08h1.66a14.75 14.75 0 0 0 10.61-5.3 15.56 15.56 0 0 0 3.43-9.05v-1.94a15.7 15.7 0 0 0 -3.31-8.79zm-5.77 15a9 9 0 0 1 -8.48 3 7.65 7.65 0 0 1 -4.75-3.01c-.13-1.22 0-2.46-.05-3.68 0-2.25-.06-4.51 0-6.76a8 8 0 0 1 4.77-3c3.42-.63 7.4.72 9.13 3.88a9 9 0 0 1 -.62 9.54z"/></g></svg>