<svg viewBox="0 0 1091.34 181.54" xmlns="http://www.w3.org/2000/svg"><g fill="#fff" transform="translate(-54.34 -58.82)"><g fill-rule="evenodd"><path d="m995.5 102c.19-.24.47-.19.72-.19 4.78.08 9.58-.27 14.34.25s9.58 3.13 10.82 8.89c.14.67.38 1.34.54 2s.34 1.16 1.13.3a45.47 45.47 0 0 1 8.82-7.85 36.11 36.11 0 0 1 14.89-5.57 38 38 0 0 1 11.12.19c9.32 1.51 16.4 6.31 20.81 14.8 1.06 2 1.16 2.08 2.52.28a38.77 38.77 0 0 1 14.4-11.72 40.92 40.92 0 0 1 12.1-3.54 40.4 40.4 0 0 1 11.52.14c11.19 1.63 19.28 7.35 23.37 18.22a53.43 53.43 0 0 1 2.87 13.26c0 .21 0 .44.21.58v69.56c-4.79 0-9.57.08-14.36-.06-3.86-.11-7.55-1-10.21-4.13a12.12 12.12 0 0 1 -2.81-8c-.07-15.1-.06-30.2-.07-45.3a49.81 49.81 0 0 0 -1-11.1c-1-4.33-3.59-7.58-9.06-7.88-8.26-.45-14 3.53-18.33 10.1-2.57 3.91-3.85 8.32-4.84 12.84a48.22 48.22 0 0 0 -1 10.44v41.62c0 1.25-.37 1.49-1.53 1.48q-12.26-.07-24.5 0c-1.08 0-1.49-.15-1.49-1.4q.07-28.65 0-57.29a28.16 28.16 0 0 0 -1.88-11.29c-2.24-5.18-6.56-6.91-11.76-6.59-5.76.36-9.9 3.47-13.18 7.93a36.29 36.29 0 0 0 -5.91 13.49 60 60 0 0 0 -1.42 13.81v39.91c0 1.17-.31 1.44-1.45 1.43q-12.25-.07-24.5 0c-1.09 0-1.5-.19-1.49-1.41 0-12.3 0-24.59 0-36.88a2.29 2.29 0 0 1 .15-1.29.75.75 0 0 1 .17.61q0 18.89 0 37.78c0 .17.28 0 .11 0s-.06 0-.07-.06a11.42 11.42 0 0 1 0-1.17v-95.7a3.27 3.27 0 0 1 .25-1.49z"/><path d="m501.47 58.82a28.17 28.17 0 0 1 5.84 2.18 16.7 16.7 0 0 1 -5 30.78 16.68 16.68 0 1 1 -6.6-32.71c.25 0 .54 0 .71-.25z"/><path d="m477.59 201.63c-9-.21-17.81.27-26.58-.26a13.64 13.64 0 0 1 -11.19-6.85c-2.83-4.54-5.1-9.37-7.63-14.07q-4.69-8.73-9.26-17.52a4.69 4.69 0 0 0 -3.91-2.66 25.57 25.57 0 0 0 -3.81-.24c-2 .06-1.76-.31-1.76 1.71q0 17.72 0 35.43v3.3c0 .82-.16 1.14-1.08 1.14q-13.36-.06-26.74 0c-.83 0-1.07-.24-1-1 .06-1.27 0-2.54 0-3.82q0-66 0-132c0-2-.2-1.72 1.65-1.69 5.23.06 10.45-.19 15.67.19 6 .43 9.58 3.13 10.92 8.32a21.87 21.87 0 0 1 .57 5.35q0 28.19 0 56.38c0 1.78 0 1.8 1.85 1.78 1.49 0 3 0 4.47-.17a6.8 6.8 0 0 0 5.62-3.31c6.21-9.75 12.53-19.43 18.79-29.15a1.71 1.71 0 0 1 1.66-1q15.29 0 30.56 0h.83c-.81 1.23-1.51 2.31-2.24 3.38q-12.24 18.22-24.5 36.42a36.74 36.74 0 0 1 -4.39 5.4c-.33.33-.67.58-.19 1.06 3.76 3.67 5.76 8.46 8.05 13 6.34 12.61 13.85 24.54 21.13 36.61.79 1.39 1.57 2.7 2.51 4.27z"/><path d="m558.73 112.85c1.67-1.56 3.13-3.19 4.82-4.58a38.78 38.78 0 0 1 23.66-8.91 44.58 44.58 0 0 1 17.85 2.44c9.18 3.45 14.89 10.16 17.83 19.38a52 52 0 0 1 2.27 15.67v27.93c0 11.72.08 23.44.11 35.16 0 1.9.19 1.66-1.72 1.64-4.87-.06-9.74.18-14.61-.17-7.58-.55-12.05-5.07-12.37-12.68-.32-7.37-.1-14.75-.13-22.13 0-8.29 0-16.59 0-24.89a31 31 0 0 0 -.86-7.42c-1.41-5.45-4.87-8.1-10.5-8.29-11.19-.36-21.22 6.08-24.56 19.34a40.7 40.7 0 0 0 -1.21 9.76q0 22.46 0 44.91c0 1.23-.24 1.62-1.55 1.61q-12.85-.1-25.69 0c-1.12 0-1.35-.32-1.35-1.39q0-43.66 0-87.33c0-3.46 0-6.93 0-10.4 0-.53-.11-1 .75-1 5.09.15 10.19-.29 15.26.25 5.57.58 10.43 3.41 11.73 10.19a9.51 9.51 0 0 0 .27.91z"/><path d="m872.75 128v7.11c0 .83-.16 1.16-1.08 1.15-4.56 0-9.13.1-13.7-.05-4.91-.17-8.64-2.68-10.07-7.92-.55-2.05-2.38-3-4.2-3.59-9.55-3.34-21.2-.26-27.7 7.55a27.74 27.74 0 0 0 -5.61 11.5 32.81 32.81 0 0 0 -.35 14.08c1.66 8.4 6.23 14.72 14.05 18.48a30.66 30.66 0 0 0 18.42 2.55 44.17 44.17 0 0 0 23.25-13.1c.47-.55.71-.65 1.13 0q5.46 9.1 11 18.18c.43.71.23 1.22-.31 1.84a51.61 51.61 0 0 1 -11.83 9.66 55 55 0 0 1 -15.45 6.56 61.59 61.59 0 0 1 -23 1.24 53.4 53.4 0 0 1 -22.78-8.15 48.3 48.3 0 0 1 -19.39-24.2 54 54 0 0 1 -3.36-20.7c.42-13.82 5.14-25.89 15.11-35.66a50.52 50.52 0 0 1 20.3-12.08 62.24 62.24 0 0 1 17.27-2.9 55 55 0 0 1 23.18 4.14c5.45 2.29 10.25 5.52 13.14 11a16.51 16.51 0 0 1 2 8.18v5.14z"/><path d="m485.79 151.57q0-24.42 0-48.85c0-.57-.2-1.23.84-1.2 5.22.14 10.45-.24 15.66.2 6.94.59 11.17 4.87 11.86 11.82a37.19 37.19 0 0 1 .19 3.8q0 41.41 0 82.83c0 1.15-.25 1.45-1.43 1.45q-12.84-.09-25.68 0c-1.21 0-1.41-.35-1.41-1.46q.06-24.3 0-48.59z"/><path d="m760.63 202.68c-8.82.32-16.71-7.23-16.69-16.66a16.71 16.71 0 0 1 33.41 0c-.03 8.98-7.53 16.98-16.72 16.66z"/><path d="m732.69 196.6a6.58 6.58 0 0 1 -.15-2.34v-91c0-1.82 0-1.81-1.86-1.81h-12.5c.36-.36.83-.2 1.25-.2h12.24c.88 0 1.21.16 1.2 1.13q0 46.2-.06 92.39c0 .61-.08 1.23-.12 1.83z"/><path d="m995.5 102v99.36a2.62 2.62 0 0 1 -.26-1.65q0-18 0-35.94c0-.57 0-1.14 0-1.71v-35.56q0-11.32 0-22.65c-.06-.62-.32-1.32.26-1.85z"/></g><path d="m132.59 129.91c-1-.52-1.91-1.1-3-1.7.71-.61 1.29-1.14 1.9-1.64a38.22 38.22 0 0 0 6.11-6.15c5.29-7 7.32-14.92 6.84-23.57q-1-18.63-17.28-27.79c-7.6-4.26-15.92-5.8-24.52-5.89-11.32-.11-22.65-.07-34 0a14.18 14.18 0 0 0 -11.29 5.53 18.09 18.09 0 0 0 -3.08 6.73v125.67h1.45q23.58 0 47.15 0a60.89 60.89 0 0 0 19.9-3.15c9.47-3.25 17.29-8.69 22.25-17.6s6-18.31 3.95-28.12-7.35-17.51-16.38-22.32zm-51.66-24c0-3.78-.09-7.55 0-11.32.16-5.49 2.71-8.35 8.17-8.63a80.37 80.37 0 0 1 15.89.25c6.56 1 10.85 5.09 12.12 11.58 1.1 5.7.36 11.11-3.31 15.82-2.93 3.76-7 5.22-11.67 5.28-6.71.08-13.43 0-20.14 0-.94 0-1.15-.28-1.14-1.18.15-3.93.08-7.87.08-11.82zm37.8 65.52c-3.35 4.27-8 6.07-13.25 6.18-7.85.15-15.71 0-23.57.06-.86 0-1-.28-1-1.05 0-4.74 0-9.48 0-14.23 0-4.52-.09-9 0-13.56.14-5.64 3.19-8.52 8.79-8.52 5 0 9.92-.1 14.88 0 6.36.15 11.75 2.35 15.25 8 4.17 6.58 3.63 17.07-1.1 23.1z"/><path d="m731.46 101.35c-3.16.07-6.32 0-9.48 0a21 21 0 0 0 -3.8.1c-5.23.08-8.83 2.62-11 7.36a34.58 34.58 0 0 0 -6.28-4.65c-8.69-4.85-18.09-6-27.76-4.68-16.84 2.32-28.28 11.77-34.3 27.54-4.94 12.93-5.07 26.23-1.37 39.51a45 45 0 0 0 14.4 22.9c9 7.57 19.55 10.48 31.15 9.93 7.63-.36 14.64-2.49 20.62-7.46.15-.13.3-.34.62-.18a28.62 28.62 0 0 1 -.14 5.31c-.75 6.92-4 12.17-10.45 15.12-7 3.2-14.39 3-21.81 1.94a91.14 91.14 0 0 1 -12.07-3.09c-4.86-1.42-8.15.14-10.39 4.66-.21.43-.43.87-.61 1.31-1.69 4.26-3.36 8.54-5.1 12.79-.36.88-.18 1.24.65 1.69a75.67 75.67 0 0 0 23.4 7.88c2.35.4 4.73.69 7.1 1h10.8c.18-.27.46-.2.71-.22a59.93 59.93 0 0 0 10.23-1.65c8.9-2.22 17-6 23.59-12.54 8.17-8.05 11.91-18 12.52-29.34 0-.52 0-1 0-1.58v-91.6a6.94 6.94 0 0 1 0-.79c.13-.97-.22-1.28-1.23-1.26zm-28.74 61.32a17.19 17.19 0 0 1 -16.67 11.76c-9.91.13-16.81-4.7-19.92-14.13a35.32 35.32 0 0 1 .38-24.71c2.89-7.31 8.5-11 16.33-11.29a23.93 23.93 0 0 1 11.9 2.16c5.18 2.63 7.7 7.2 9 12.59a44.39 44.39 0 0 1 1.07 10.34 39.64 39.64 0 0 1 -2.09 13.28z"/><path d="m983.72 137.91a49.36 49.36 0 0 0 -23.64-31.59 54 54 0 0 0 -20.92-6.52 60.76 60.76 0 0 0 -15.07.25 51.72 51.72 0 0 0 -15.44 4.66 47.85 47.85 0 0 0 -20.06 17.72 51.62 51.62 0 0 0 -8 28.94 71.58 71.58 0 0 0 .45 7.74 52.92 52.92 0 0 0 4.87 16.31 47.56 47.56 0 0 0 16.16 18.71 52.66 52.66 0 0 0 25.24 8.87 57.29 57.29 0 0 0 26.41-3.61 48.17 48.17 0 0 0 20.68-15.39 49 49 0 0 0 8.49-16.43 61.55 61.55 0 0 0 2.18-12 56.8 56.8 0 0 0 -1.35-17.66zm-26.63 12.63c0 7.43-1.43 13.5-5.27 18.83a21.59 21.59 0 0 1 -12.91 8.63 24.51 24.51 0 0 1 -15.91-1.25 22.52 22.52 0 0 1 -11.3-11.29 31.75 31.75 0 0 1 -3.06-15.13c.3-7.71 2.42-14.8 8.22-20.29 5.2-4.93 11.53-6.74 18.55-6 10.08 1.07 16.45 6.91 19.91 16.12a26.29 26.29 0 0 1 1.77 10.38z"/><path d="m346.79 105.07c-13.67-6.7-28-7.4-42.45-2.78-14.81 4.74-25.16 14.51-30.85 29a55 55 0 0 0 -2.49 31.31 48.24 48.24 0 0 0 18.52 30.07c9.6 7.29 20.6 10.36 32.54 10.44a55.66 55.66 0 0 0 13.43-1.5c15.21-3.69 26.71-12.25 33.67-26.37 5.64-11.44 6.74-23.57 4.06-36-3.4-15.54-12.13-27.17-26.43-34.17zm-.39 46.4c0 6.88-1.54 13.33-5.93 18.8-5 6.29-11.77 8.82-19.71 8.49-11.2-.46-19.73-8.38-22.1-20.1-1.69-8.39-.92-16.53 3.66-24 5.06-8.21 13.56-11.94 23.09-10.62 10.61 1.47 16.83 8.05 19.81 18a30.26 30.26 0 0 1 1.18 9.43z"/><path d="m235.11 105.18c-12.28-6.16-25.29-7.24-38.54-4.08-15.78 3.77-27.33 13.06-34 28-4.46 9.89-5.46 20.31-3.88 31 1.74 11.76 6.78 21.86 15.63 29.88 10.16 9.22 22.36 13.07 35.89 13.19a54.52 54.52 0 0 0 15.47-2c14.63-4.16 25.52-12.9 32-26.74a54 54 0 0 0 3.79-34.3c-3.22-15.87-11.9-27.7-26.36-34.95zm-4.36 61.82c-3.87 7.19-10.15 11-18.3 11.74-13.14 1.15-22.74-7.2-25.54-19.32-.22-.94-.37-1.89-.53-2.84a27.15 27.15 0 0 1 -.34-5.25c0-7.06 1.64-13.64 6.24-19.19 5.53-6.69 12.83-9.13 21.25-8 9.49 1.24 15.81 6.8 19 15.67 3.31 9.19 2.93 18.42-1.78 27.19z"/></g></svg>