<svg height="40" viewBox="0 0 149 40" width="149" xmlns="http://www.w3.org/2000/svg"><path d="m21.3462138 20.938842c4.9097474 0 5.9867632 4.8582564 5.9867632 6.027835 0 1.1695795 1.6847182 2.9989238 3.5499397 2.9989238 2.647414 0 3.6101097-2.6990316 3.6101097-3.5087398-.0058861-2.1876446-.6315971-4.329133-1.8050556-6.1777816-2.1359812-3.8386227-6.9193739-6.5076644-11.2575219-6.5076644-4.3381479 0-6.1973529 1.6494072-6.3778586 1.9792876-.1805056.3298829-.4512645.5098185-.6919376.359872-.2406723-.1499472.1624537-.599785.3128752-.8996772.3099814-.5978777.7781449-1.0998231 1.3537912-1.4514782v-9.6745272c.0033217-1.09160048-.4331115-2.13883472-1.2113876-2.90675955s-1.8332361-1.19224792-2.9282036-1.17777395c-1.8772569-.00599671-4.28399537 1.6614035-4.28399537 3.92259146v23.43958654c0 8.037115 7.62936347 12.6374635 12.98435807 12.6374635 5.3549938 0 8.4536707-2.3211671 10.2286397-4.3304447 1.7749715-2.0092815.3790625-5.7279469-2.6594453-5.7279469-3.0385094 0-2.8820698 2.8489781-7.0036106 2.8489781-4.1215417 0-5.8483763-3.9585793-5.8483763-5.6379763 0-1.6793979 1.1371832-6.2137682 6.0409157-6.2137682zm-17.59928055-10.4362546c.24669043 1.6194188 2.65342967 12.6794485 2.65342967 12.6794485v-16.57804842c-4.21179247 0-2.92418774 2.27918192-2.65342967 3.89859992zm-3.49578958 4.3904238c.51143358 1.1515869 5.56558516 11.3959084 5.56558516 11.3959084l-3.21901423-15.156558c-2.81588337-.0059991-2.85800133 2.6090627-2.34657093 3.7606496zm39.87966843 17.2558061v-12.3855547h5.2527083c.5136539-.0051727 1.0211169.1120391 1.4801442.3418779.4398963.2200563.8339413.5212708 1.1612525.8876806.3277874.3667443.5866322.7893412.7641389 1.2475534.1779758.4508814.2698068.9309614.2707589 1.4154908.002885.4415535-.0641244.8807966-.1985576 1.3015334-.1273219.398557-.3161036.774929-.5595656 1.1155994-.2359873.3294029-.5294646.6138272-.866426.839699-.3439754.2287482-.7307802.3858374-1.1371848.4618336l3.0445251 4.798279h-1.3838753l-2.9241885-4.5703609h-3.6762929v4.5703609zm1.2033696-5.6499722h4.0613725c.3432368.0043153.6822182-.0760414.9867634-.2339155.2971812-.1553267.5576941-.3720761.7641389-.6357718.2118607-.2727665.3765771-.5788617.4873636-.9056755.1169046-.3417569.175875-.7005411.1744891-1.0616179.0018023-.3671052-.0655491-.7312849-.1985544-1.0736161-.1260689-.3292827-.3093799-.6338347-.5415185-.8996764-.2269001-.2504739-.5008052-.4542351-.8062561-.5997835-.3009291-.1494865-.6324896-.2274961-.968713-.2279188h-3.9350179zm19.0132392 4.5703586v1.0796136h-8.3513853v-12.3855547h8.1889299v1.0796121h-6.961491v4.4683969h6.0709966v1.0316311h-6.0709966v4.726301zm2.7436828 1.0796136v-12.3855547h5.1444049c.5136538-.0051727 1.0211168.1120391 1.4801441.3418779.4398185.2201797.8338413.5213775 1.1612517.8876806.327474.3680936.5880918.7902602.770157 1.2475534.1846233.4493354.2806381.9299309.2827911 1.4154908.0012507.5036723-.088425 1.0034594-.2647407 1.4754723-.16625.4570255-.415037.8798465-.7340556 1.2475502-.3165972.3606095-.7008593.6560456-1.1311683.8696873-.4541446.2242108-.9553562.3372958-1.4620923.329882h-4.0252727v4.5703602zm1.2033689-5.6499722h3.9711201c.3432367.0043153.6822181-.0760414.9867633-.2339155.2930061-.1460069.5530278-.3501022.7641397-.5997859.2141397-.2712854.3790752-.5777864.4873644-.9056731.1168147-.345916.1757641-.7086279.1744883-1.0736153.0163152-.7345808-.2384712-1.4495708-.7160052-2.0092784-.2249187-.2526334-.4992924-.4567433-.8062561-.5997835-.3027557-.1429559-.6337109-.2167251-.968713-.2159238h-3.8688331zm15.1624579 4.6363359c.6775814.0246231 1.3497833-.1284199 1.9494543-.4438403.5028617-.282991.9284455-.6845756 1.2394758-1.1695802.3186014-.5042413.5390516-1.0638034.6498165-1.6494095.1230934-.6142186.185567-1.2389749.1865269-1.8653294v-6.243759h1.2033657v6.243759c.0045489.8082339-.0904258 1.6139696-.2827943 2.3991387-.1697493.7116871-.4762403 1.3838401-.9025242 1.9792892-.4218062.5769963-.9770208 1.0440442-1.6185295 1.3615108-.7516784.3532625-1.5760073.5258248-2.4067416.5038194-.8577389.0275538-1.7090956-.155775-2.4789422-.5338085-.6445736-.3317335-1.1996853-.8130938-1.6185326-1.4034966-.4163927-.601755-.7126033-1.2778332-.8724425-1.9912834-.177054-.754978-.2658916-1.5278403-.2647408-2.303173l-.000011-6.2557556h1.2033807v6.243759c-.0014655.6386807.0630547 1.2758141.1925394 1.9013176.1152782.5814997.3376436 1.1366741.655837 1.6374122.3151897.4706049.7406016.8576195 1.2394695 1.127596.5904339.3186332 1.2541808.4778426 1.9253929.4618336zm17.4247915-10.2923063h-4.4404326v11.3059426h-1.2033736v-11.3059426h-4.4284012v-1.0796121h10.0782231zm4.915761-1.0796121h1.034902l5.162454 12.3855547h-1.293617l-1.624554-3.8746086h-5.5836327l-1.5944667 3.8746086h-1.3116723zm3.008423 7.5512898-2.496983-6.1178032-2.5391171 6.1178032zm13.008432-6.4716777h-4.428401v11.3059426h-1.203373v-11.3059426h-4.428394v-1.0796121h10.078216zm2.304449 11.3059426v-12.3855547h1.203373v12.3855547zm9.765342.0899666c-.821186.009027-1.633079-.1737911-2.370637-.5338085-.704208-.3443914-1.332238-.8256533-1.847167-1.4154908-.522008-.5922932-.929956-1.2754785-1.203373-2.0152759-.278122-.7424963-.420762-1.5285995-.42118-2.3211679-.006403-.8206981.14473-1.6350426.445251-2.3991387.286363-.7365592.704267-1.4152867 1.233452-2.0032793.521036-.5780432 1.150621-1.0487411 1.85319-1.385504.720527-.3455853 1.510897-.5220366 2.310464-.5158144.823199-.0084843 1.636341.1807864 2.370645.5518026.700994.3544336 1.324689.8436607 1.835135 1.439484.517698.5954072.925154 1.2777697 1.203373 2.0152743.276972.7324013.419631 1.5084654.421172 2.291178.006403.8206982-.144729 1.6350426-.44525 2.3991387-.277446.7324421-.685085 1.4090238-1.203358 1.9972833-.519086.5760632-1.146713 1.0447852-1.847182 1.379505-.727905.3489764-1.526879.5255091-2.334535.5158136zm-4.602889-6.279744c-.002443.6619035.109503 1.3192808.330928 1.9433018.211706.6042803.531787 1.1651907.94465 1.6554055.400812.4770951.893987.868757 1.450058 1.1515853.580578.2891674 1.222299.4352071 1.871245.4258485.666416.0073027 1.324108-.1514467 1.913355-.4618336.560303-.2971815 1.053755-.7053929 1.450058-1.1995693.400723-.4944901.712217-1.0546206.920587-1.6554055.442518-1.237404.442518-2.5892221 0-3.8266261-.214911-.6022723-.536949-1.1610055-.950674-1.6494096-.402639-.473653-.895494-.8630233-1.450057-1.1455877-.574741-.2874662-1.210206-.4334908-1.85319-.4258478-.662556-.0091339-1.317319.1432302-1.90734.4438403-.562148.2944307-1.056126.7030774-1.450057 1.1995693-.40997.4944422-.729704 1.0567744-.944651 1.6614046-.214339.6049485-.3242 1.241753-.324912 1.8833243zm14.404341-3.9285901v10.1183675h-1.203365v-12.3855547h.944642l8.206978 10.3102989v-10.2923055h1.203373v12.3675613h-1.040917z" fill="#fff"/></svg>