<svg height="46" viewBox="0 0 50 46" width="50" xmlns="http://www.w3.org/2000/svg"><path d="m51 14.73c.0070735-3.9459978-1.596576-7.72396478-4.44-10.46-5.7447302-5.46441464-14.6932875-5.69342166-20.71-.53-6.0203232-5.10472049-14.9286167-4.81944762-20.61.66-2.7524981 2.70337762-4.28369825 6.4122044-4.24 10.27.0011059 4.0861354 1.61463625 8.0067626 4.49 10.91-.54957824 1.5858271-.11918257 3.3465367 1.1 4.5.85873463.8279477 2.00715927 1.2873175 3.2 1.28.17319995.0096165.3468.0096165.52 0-.215775 1.3477264.2705494 2.7124507 1.29 3.62.8593208.8270404 2.0073605 1.2862563 3.2 1.28.1732.0096165.3468.0096165.52 0-.215775 1.3477264.2705494 2.7124507 1.29 3.62.8587346.8279477 2.0071593 1.2873175 3.2 1.28.1762894-.0432045.349916-.0966281.52-.16-.0076234.1499031-.0076234.3000969 0 .45.0428833 1.7950747 1.1307633 3.3995076 2.7825018 4.1037038 1.6517384.7041962 3.5626129.3782414 4.8874982-.8337038l3-3c.3477298-.3464752.6350304-.7486961.85-1.19 1.5478422.4075509 3.1962047-.0206445 4.35-1.13 1.0129236-.9034227 1.498621-2.2588572 1.29-3.6h.39c1.2017494.0029321 2.3571397-.4635298 3.22-1.3 1.0241634-.925297 1.5065801-2.3084763 1.28-3.67 1.3913481.2233311 2.8045154-.2427531 3.79-1.25 1.3552859-1.2931032 1.7227813-3.3123085.91-5 2.5073966-2.6681229 3.9084429-6.188609 3.92-9.85zm-43 13.91c-.46314336-.4483513-.72461485-1.0653911-.72461485-1.71s.26147149-1.2616487.72461485-1.71l3-3c1.0093174-.9663661 2.6006826-.9663661 3.61 0 .4631434.4483513.7246148 1.0653911.7246148 1.71s-.2614714 1.2616487-.7246148 1.71l-3 3c-1.0093174.9663661-2.6006826.9663661-3.61 0zm5 4.86c-.4631434-.4483513-.7246148-1.0653911-.7246148-1.71s.2614714-1.2616487.7246148-1.71l3-3c1.0072405-.9715247 2.6027595-.9715247 3.61 0 .4631434.4483513.7246148 1.0653911.7246148 1.71s-.2614714 1.2616487-.7246148 1.71l-3 3c-1.0093174.9663661-2.6006826.9663661-3.61 0zm8.61 4.86c-1.0093174.9663661-2.6006826.9663661-3.61 0-.4631434-.4483513-.7246148-1.0653911-.7246148-1.71s.2614714-1.2616487.7246148-1.71l3-3c1.0093174-.9663661 2.6006826-.9663661 3.61 0 .4631434.4483513.7246148 1.0653911.7246148 1.71s-.2614714 1.2616487-.7246148 1.71zm8.1 2-3 3c-1.0093174.9663661-2.6006826.9663661-3.61 0-.4841438-.4740246-.7579184-1.122438-.76-1.8-.0381568-.6535073.2015483-1.2927209.66-1.76l3-3c1.049089-.9473551 2.6524396-.9211423 3.67.06.4816921.4470965.7570664 1.0734751.7608543 1.7306723s-.2643479 1.2867084-.7408543 1.7393277zm15.03-12.15c-1.001277.9574701-2.578723.9574701-3.58 0-.1009881-.0933185-.2201363-.1648074-.35-.21l-6.74-6.55c-.4014881-.3349647-.9932458-.3040859-1.3576904.0708464-.3644446.3749322-.378527.9673276-.0323096 1.3591536l7 6.82c.4683653.4454946.7335007 1.0636012.7335007 1.71s-.2651354 1.2645054-.7335007 1.71c-.8916988.8507074-2.2593429.9552673-3.27.25-.07-.08-.13-.17-.21-.25l-7-6.82c-.2485739-.2813196-.6337669-.3997217-.9974391-.3065965-.3636721.0931251-.6445518.3820876-.7273246.7482547-.0827727.3661672.046507.747847.3347637.9883418l6.71 6.52c.0509373.1120737.1221308.2137786.21.3.1.1.21.17.32.25.3284224.4121181.5081219.9230284.51 1.45-.0033505.6668479-.286314 1.3017017-.78 1.75-.6292008.5962469-1.5157702.8366725-2.36.64.0040574-1.1872918-.4762613-2.3248888-1.33-3.15-1.0130031-.9561014-2.3959367-1.4170793-3.78-1.26.2326905-1.3709832-.263348-2.7644349-1.31-3.68-.989081-.9472192-2.3501397-1.4021283-3.71-1.24.215775-1.3477264-.2705494-2.7124507-1.29-3.62-.989081-.9472192-2.3501397-1.4021283-3.71-1.24.215775-1.3477264-.2705494-2.7124507-1.29-3.62-1.7865928-1.7105056-4.6034072-1.7105056-6.39 0l-3 3c-2.31269311-2.4905489-3.60170295-5.7612775-3.61-9.16-.0409526-3.3193754 1.27360953-6.51188347 3.64-8.84 4.8768477-4.69687323 12.4937418-5.01030799 17.74-.73l-6.1 6c-.9253663.7766793-1.4744788 1.9119672-1.5088731 3.1195891-.0343943 1.2076218.4492122 2.3723226 1.3288731 3.2004109 1.7798575 1.7079972 4.5901425 1.7079972 6.37 0l6.53-6.35 7 7 6.77 6.72c.4644815.44959.7242119 1.0700275.7185416 1.7164346-.0056702.6464071-.2762446 1.2621927-.7485416 1.7035654zm1.1-5.21-6.44-6.36-7.7-7.64c-.0468873-.03778148-.0970912-.07125078-.15-.1-.0554841-.0463914-.1158371-.08662678-.18-.12-.0565639-.0048254-.1134361-.0048254-.17 0-.1223124-.04696977-.2576876-.04696977-.38 0-.0631898-.0060303-.1268102-.0060303-.19 0-.0563658.02821613-.1099376.06169846-.16.1-.0569874.03104537-.1106067.06790864-.16.11l-7.23 7c-1.0038625.9702886-2.5961375.9702886-3.6 0-.4605705-.4357021-.7149328-1.0461716-.7-1.68.0285002-.6668704.3416331-1.2894953.86-1.71l6.93-6.75c5.1606098-5.02001966 13.3590986-5.0861365 18.6-.15 4.8169413 4.658188 5.112246 12.2832192.67 17.3z" fill="#fff" transform="translate(-1)"/></svg>