<?xml version="1.0" encoding="utf-8"?>
<!-- Generator: Adobe Illustrator 23.0.0, SVG Export Plug-In . SVG Version: 6.00 Build 0)  -->
<svg version="1.1" id="Calque_1" xmlns="http://www.w3.org/2000/svg" xmlns:xlink="http://www.w3.org/1999/xlink" x="0px" y="0px"
	 viewBox="0 0 250 250" style="enable-background:new 0 0 250 250;" xml:space="preserve">
<style type="text/css">
	.st0{fill:#FFFFFF;}
	.st1{fill:#A7D1E5;}
	.st2{fill:#1E639E;}
	.st3{fill:#FFCC00;}
</style>
<g>
	<g>
		<path class="st0" d="M216.1,124.5c0,50.3-40.8,91.1-91.1,91.1s-91.1-40.8-91.1-91.1S74.7,33.4,125,33.4S216.1,74.1,216.1,124.5z"
			/>
		<path class="st1" d="M125,29.4c-52.4,0-95,42.6-95,95c0,1,0,2.1,0.1,3.1c3.6-3,7.2-5.8,11.1-8.4c2.7-43.9,39.3-78.8,83.9-78.8
			s81.1,34.9,83.9,78.8c3.8,2.6,7.5,5.4,11.1,8.4c0-1,0.1-2.1,0.1-3.1C220,72,177.4,29.4,125,29.4z"/>
		<path class="st2" d="M208.9,119.2c0.1,1.8,0.2,3.5,0.2,5.3c0,2.7-0.1,5.4-0.4,8.1c-4.1,42.6-40.1,76-83.7,76s-79.6-33.4-83.7-76
			c-0.3-2.7-0.4-5.4-0.4-8.1c0-1.8,0.1-3.5,0.2-5.3c-3.8,2.6-7.5,5.4-11.1,8.4c0.1,4.6,0.6,9,1.4,13.4c7.8,44.6,46.8,78.5,93.6,78.5
			s85.7-34,93.6-78.5c0.8-4.4,1.2-8.8,1.4-13.4C216.4,124.6,212.7,121.8,208.9,119.2z"/>
	</g>
	<g>
		<g transform="translate(0,-1020.3622)">
			<g>
				<g>
					<g>
						<path class="st3" d="M90.7,1196.5c-7.8,0-14.2-6.5-14.2-14.6c0-4.2,1.7-8.2,4.8-10.9l46.4-42.2c-1-2.7-1.5-5.7-1.5-8.7
							c0-14,11.1-25.5,24.8-25.5c3.6,0,7.3,0.8,10.6,2.4c1.1,0.5,1.8,1.5,2,2.7c0.2,1.2-0.2,2.4-1,3.2l-15.2,15.6l5,5.1l15.3-15.6
							c0.8-0.8,2-1.2,3.1-1c1.1,0.2,2.1,1,2.6,2.1c1.6,3.5,2.4,7.2,2.4,10.9c0,14-11.1,25.5-24.8,25.5c-3,0-5.8-0.5-8.5-1.6
							l-41.2,47.6C98.6,1194.7,94.8,1196.5,90.7,1196.5z M151,1101.9c-9.8,0-17.7,8.2-17.7,18.2c0,2.9,0.6,5.6,1.9,8
							c0.8,1.5,0.4,3.3-0.8,4.4l-48.4,44c-1.5,1.4-2.4,3.3-2.4,5.4c0,4,3.2,7.3,7.1,7.3c2.1,0,4-0.9,5.3-2.4l43-49.7
							c1.1-1.3,2.8-1.6,4.3-0.8c2.4,1.3,5,1.9,7.8,1.9c9.8,0,17.7-8.2,17.7-18.2c0-0.8-0.1-1.7-0.2-2.5l-11.1,11.3
							c-1.2,1.3-3,2.1-4.9,2.1c-1.9,0-3.8-0.8-5.2-2.2l-5-5.1c-1.4-1.4-2.1-3.3-2.1-5.3c0-2,0.8-3.8,2.2-5.1l11-11.3
							C152.6,1101.9,151.8,1101.9,151,1101.9z"/>
					</g>
					<g>
						<path class="st3" d="M158.1,1196.5c-0.9,0-1.8-0.4-2.5-1.1l-33.2-34.1c-1.4-1.4-1.4-3.7,0-5.1s3.6-1.4,5,0l30.7,31.5l9.2-9.4
							l-31.6-32.4c-1.4-1.4-1.4-3.7,0-5.1c1.4-1.4,3.6-1.4,5,0l34.1,34.9c1.4,1.4,1.4,3.7,0,5.1l-14.2,14.6
							C159.9,1196.1,159,1196.5,158.1,1196.5z"/>
						<path class="st3" d="M120.8,1143.6c-0.9,0-1.8-0.4-2.5-1.1l-23-23.6c-1.4-1.4-1.4-3.7,0-5.1c1.4-1.4,3.6-1.4,5,0l23,23.6
							c1.4,1.4,1.4,3.7,0,5.1C122.6,1143.3,121.7,1143.6,120.8,1143.6z"/>
						<path class="st3" d="M90.7,1127.3c-0.1,0-0.3,0-0.4,0c-1.1-0.1-2.1-0.8-2.6-1.7L77,1107.4c-0.8-1.4-0.6-3.3,0.5-4.4l7.1-7.3
							c1.1-1.2,2.9-1.4,4.3-0.5l17.7,10.9c0.9,0.6,1.6,1.6,1.7,2.7c0.1,1.1-0.2,2.2-1,3l-14.2,14.6
							C92.5,1126.9,91.6,1127.3,90.7,1127.3z M84.5,1106.1l6.9,11.8l7.8-8l-11.5-7.1L84.5,1106.1z"/>
					</g>
				</g>
			</g>
		</g>
	</g>
</g>
</svg>
