<?xml version="1.0" encoding="utf-8"?>
<!-- Generator: Adobe Illustrator 23.0.0, SVG Export Plug-In . SVG Version: 6.00 Build 0)  -->
<svg version="1.1" id="Calque_1" xmlns="http://www.w3.org/2000/svg" xmlns:xlink="http://www.w3.org/1999/xlink" x="0px" y="0px"
	 viewBox="0 0 250 250" style="enable-background:new 0 0 250 250;" xml:space="preserve">
<style type="text/css">
	.st0{fill:#FFFFFF;}
	.st1{fill:#A7D1E5;}
	.st2{fill:#1E639E;}
	.st3{fill:#FFCC00;}
</style>
<g>
	<g>
		<path class="st0" d="M216.1,124.5c0,50.3-40.8,91.1-91.1,91.1s-91.1-40.8-91.1-91.1S74.7,33.4,125,33.4S216.1,74.1,216.1,124.5z"
			/>
		<path class="st1" d="M125,29.4c-52.4,0-95,42.6-95,95c0,1,0,2.1,0.1,3.1c3.6-3,7.2-5.8,11.1-8.4c2.7-43.9,39.3-78.8,83.9-78.8
			s81.1,34.9,83.9,78.8c3.8,2.6,7.5,5.4,11.1,8.4c0-1,0.1-2.1,0.1-3.1C220,72,177.4,29.4,125,29.4z"/>
		<path class="st2" d="M208.9,119.2c0.1,1.8,0.2,3.5,0.2,5.3c0,2.7-0.1,5.4-0.4,8.1c-4.1,42.6-40.1,76-83.7,76s-79.6-33.4-83.7-76
			c-0.3-2.7-0.4-5.4-0.4-8.1c0-1.8,0.1-3.5,0.2-5.3c-3.8,2.6-7.5,5.4-11.1,8.4c0.1,4.6,0.6,9,1.4,13.4c7.8,44.6,46.8,78.5,93.6,78.5
			s85.7-34,93.6-78.5c0.8-4.4,1.2-8.8,1.4-13.4C216.4,124.6,212.7,121.8,208.9,119.2z"/>
	</g>
	<g>
		<g>
			<g>
				<g>
					<path class="st3" d="M163.1,95.4c-11.6,0-21.1-9.5-21.1-21.1c0-2.3-1.9-4.2-4.2-4.2h-25.3c-2.3,0-4.2,1.9-4.2,4.2
						c0,11.6-9.5,21.1-21.1,21.1c-2.3,0-4.2,1.9-4.2,4.2V125c0,25.2,38.2,53,39.8,54.1c0.7,0.5,1.6,0.8,2.5,0.8s1.7-0.3,2.5-0.8
						c1.6-1.2,39.8-28.9,39.8-54.1V99.7C167.3,97.3,165.5,95.4,163.1,95.4z M158.9,125c0,16.1-22.5,36.7-33.8,45.4
						c-11.3-8.7-33.8-29.3-33.8-45.4v-21.4c12.9-1.9,23.2-12.1,25-25h17.5c1.9,12.9,12.1,23.2,25,25V125z"/>
					<path class="st3" d="M142,108.1c0-2.3-1.9-4.2-4.2-4.2c-2.3,0-4.2,1.9-4.2,4.2v1.1l-5.9-4.4c-1.5-1.1-3.6-1.1-5.1,0l-16.9,12.7
						c-1.9,1.4-2.2,4-0.8,5.9c0.8,1.1,2.1,1.7,3.4,1.7v8.5c0,2.3,1.9,4.2,4.2,4.2h25.3c2.3,0,4.2-1.9,4.2-4.2V125
						c1.3,0,2.5-0.6,3.4-1.7c1.4-1.9,1-4.5-0.8-5.9l-2.5-1.9V108.1z M116.7,129.2v-8.4c0-0.3,0-0.7-0.1-1l8.6-6.4l8.4,6.3v9.5H116.7
						z"/>
				</g>
			</g>
		</g>
	</g>
</g>
</svg>
