<svg height="36" viewBox="0 0 150 36" width="150" xmlns="http://www.w3.org/2000/svg"><g fill="#fff" fill-rule="evenodd"><path d="m0 21.6408649h149.837838v-.470919h-149.837838z"/><path d="m4.36123821 12.0672c0 .8228571-.07014456 1.7948571-.82770584 2.0742857l-.07715902.0257143v.2571429h4.30862979v-.2468572l-.05786926-.024c-.99429918-.5725714-1.01008171-1.2805714-1.01008171-2.3348571v-9.18685717h1.73081709c.6470836 0 1.41692018.08228571 1.66067254.72685714l.0315651.07542857h.231477l.722489-2.62628571h-.2367379c-.2332307.11828571-.5120553.14571428-.92766184.14571428h-8.18762413c-.20166562 0-.58921433-.06342857-.7593149-.14571428h-.17711502l-.78561911 2.62628571h.2612885c.55589566-.52628571 1.4327027-.80228571 2.40946574-.80228571h1.69048397z"/><path d="m13.9514029 7.46605714c0-3.04628571 2.1060905-5.17371428 5.111785-5.17371428 3.2792584 0 5.0504086 2.91428571 5.0504086 5.66057143 0 3.01200001-2.0552357 5.11371431-5.0065682 5.11371431-3.1828096 0-5.1556254-2.9057143-5.1556254-5.60057146m-.4331427-4.71428571c-1.3836015 1.32342857-2.1429164 3.05657143-2.1429164 4.89428571 0 4.04742856 3.2739975 7.09885716 7.6282213 7.09885716 4.3138906 0 7.6913513-3.1577143 7.6913513-7.19657144 0-1.81885715-.7312571-3.53142857-2.0745255-4.83428572-1.4063984-1.368-3.3266059-2.11542857-5.4098994-2.10514285-2.167467-.04628572-4.1928912.71485714-5.6922313 2.14285714"/><path d="m32.0132772 11.7390857v-8.11542856c-.0175362-.88114285-.0315651-2.08628571.8487492-2.38628571l.0736518-.02914286v-.25542857h-4.189384v.25542857l.0806662.02914286c.8803143.31371428.8627781 1.51371428.8575173 2.38628571v8.11371426c.0052608.8811429.022797 2.0862857-.8575173 2.4051429l-.0806662.024v.2571428h4.189384v-.2571428l-.0736518-.024c-.8803143-.3188572-.8662854-1.524-.8487492-2.4034286"/><path d="m41.038252 14.1456c-1.0872407-.5228571-1.8360339-1.092-2.4287555-1.86 0 0-3.6159522-4.644-4.0946888-5.256.1069704-.13371429 4.4313827-5.57314286 4.8276995-6.07714286h-4.0613702v.252l.0613765.02742857c.3103897.13028572.4857511.30171429.5436204.51257143.1245066.47314286-.3822879 1.14-.8277059 1.72285715l-.2928535.38742857-2.7479133 3.57085714 4.6277876 6.0908571c.3945631.5297143 1.3941232.9085715 2.4059585.9085715h2.0517285v-.2485715z"/><path d="m41.8654318.9528v.25542857l.0736518.02914286c.8645317.31028571.845242 1.44685714.8329667 2.36057143v8.16000004c.0087681.876.022797 2.0828571-.8294595 2.3845714l-.077159.024v.2571428h4.1437901v-.2571428l-.077159-.024c-.8540101-.3188572-.8417348-1.5154286-.8329667-2.3845714v-8.12057147c-.0087681-.87942857-.0210434-2.08628572.8329667-2.4l.077159-.02914286v-.25542857z"/><path d="m116.068559.9528v.25542857l.068391.02914286c.868039.31028571.843489 1.44685714.831213 2.36057143v8.16000004c.012276.876.022797 2.0828571-.831213 2.3845714l-.068391.024v.2571428h4.136776v-.2571428l-.073652-.024c-.861024-.3188572-.841735-1.5154286-.829459-2.3845714v-8.12057147c-.012276-.87942857-.031565-2.08628572.829459-2.4l.073652-.02914286v-.25542857z"/><path d="m50.6557731 7.46605714c0-3.04628571 2.1008297-5.17371428 5.1135387-5.17371428 3.2757511 0 5.0451477 2.91428571 5.0451477 5.66057143 0 3.01200001-2.058743 5.11371431-5.0065682 5.11371431-3.181056 0-5.1521182-2.9057143-5.1521182-5.60057146m-.4348963-4.71428571c-1.3853551 1.32342857-2.1481772 3.05657143-2.1481772 4.89428571 0 4.04742856 3.2775047 7.09885716 7.6317284 7.09885716 4.3138907 0 7.6878442-3.1577143 7.6878442-7.19657144 0-1.81885715-.7330107-3.53142857-2.0727719-4.83428572-1.4011376-1.368-3.3230987-2.11542857-5.4081458-2.10514285-2.1727279-.04628572-4.189384.71485714-5.6904777 2.14285714"/><path d="m83.5804035 2.30142857 1.3520365 9.88285713c.1262602.9257143.2279698 1.4348572 1.0100817 1.9697143l.045594.0342857v.2365714h-4.203413v-.2605714l.0789126-.0257143c.6330547-.1954285.768083-.6977143.768083-1.3885714 0 0-1.022357-8.41371429-1.1152986-9.24-.3226649.78857143-4.5067881 11.2422857-4.5067881 11.2422857l-.122753-.0874286c-1.0258643-.768-1.3380076-1.3148571-1.8483093-2.4805714 0 0-3.4335763-7.97657141-3.7387052-8.69314284-.1052168.76114285-1.1275738 8.32114284-1.1275738 8.32114284-.0666374.4302857-.1122313.8005714-.1122313 1.1194286 0 .5657143.1578252.9702857.7102137 1.2137143l.0701445.0274285v.252h-3.5914016v-.2245714l.0385795-.0411428c.8066625-.6874286.9399372-1.5942858 1.0960088-2.64l.0192898-.1045715 1.1696606-8.43085711.0227969-.14914286c.0946952-.56057143.1946512-1.18285714-.5962287-1.60285714l-.0631302-.03428572v-.24514286h3.8456757c-.0508548.29828572.0946952.58971429.2718102.99942858 0 0 3.5440541 8.12571431 3.757995 8.61085711.1928975-.4851428 3.3108234-8.26285711 3.3108234-8.26285711.1630861-.43028572.3016216-.81085715.3016216-1.212v-.13542858h3.7983281v.26057143c-.4576933.05142857-.6979384.62742857-.6418228 1.08857143"/><path d="m93.7494362 3.09068571c.1841295.47657143 1.7360779 4.368 1.8465556 4.644h-3.7088937c.1104776-.276 1.6711942-4.16742857 1.8623381-4.644zm1.4397172-2.13771428h-3.4511125v.25542857l.0824198.03085714c.2507668.07542857.4138529.19028572.4980264.348.1560717.32914286-.0473476.82971429-.2209554 1.272l-3.5861408 8.77542856c-.4015776 1.0251429-.7786046 1.9971429-1.8325267 2.5114286l-.0666373.0291428v.2485715h4.0280515v-.2571429l-.0754054-.024c-.3296794-.1217143-.5295914-.2674286-.608504-.4542857l-.0578693-.2897143c0-.3102857.1367819-.708.3191577-1.1794286 0 0 .8855752-2.33314281 1.0434004-2.76857139h5.0293652l1.1696606 3.00857139c.2104337.5331429.3402011.8502858.3402011 1.0782858 0 .2725714-.1946511.3994285-.6593589.6085714l-.0736518.0257143v.252h4.459441v-.2451429l-.06313-.0325714c-1.036386-.5142857-1.429196-1.4811429-1.8412952-2.5062857z"/><path d="m105.812372 2.57348571c.49978-.07542857.908372-.12514285 1.285399-.14228571.741779-.03257143 1.43621.20228571 1.914947.648.406838.38057143.624286.88971429.624286 1.46914286 0 1.96285714-2.16922 2.57657143-3.465141 2.76514285l-.180622.024 1.997366 2.98799999 2.514683 3.0514286c.631301.756 1.322225 1.0474286 2.486625 1.0474286h2.293727l-.343709-.2142858c-1.274877-.7902857-2.512929-1.8291428-3.303809-2.7942857 0 0-2.337567-2.86628569-2.85839-3.50571426 1.615078-.432 3.193331-1.77085714 3.193331-3.60171428 0-2.03828572-1.716788-3.35485715-4.378775-3.35485715h-5.017089v.25542858l.071898.02742857c.864531.312.829459 1.40571428.829459 2.36228571v8.18914283c.012275.8708572.035072 2.052-.822445 2.3554286l-.078912.024v.2571429h4.157818v-.2571429l-.070144-.024c-.778605-.2708571-.85401-1.248-.85401-2.0777143z"/><path d="m137.242222.9528v.24514286l-.061377.03428571c-1.010081.564-1.010081 1.30628572-1.010081 2.43085714v11.44799999l-.156072-.0462857c-1.541427-.5091429-2.18325-1.224-3.060057-2.3365714 0 0-6.460314-8.00228574-6.849616-8.49257146v7.57542856c0 1.0628572.017536 1.7708572 1.011835 2.3417143l.056116.0257143v.2451428h-3.873734v-.2451428l.05787-.0257143c1.031125-.5948571 1.031125-1.3388571 1.031125-2.46v-8.02971429c0-1.12457142 0-1.86685714-1.008328-2.43085714l-.059623-.03428571v-.24514286h3.210867c-.014029.23485714.327926.62571429.599736.96857143 0 0 6.925022 8.55257147 7.3266 9.03942857v-7.42114286c0-1.05771428-.026304-1.76228571-1.015343-2.30742857l-.057869-.03428571v-.24514286z"/><path d="m146.549529.9528h-6.702313v.25542857l.075405.02914286c.878561.31371428.861025 1.52057143.850503 2.4v8.11714287c.010522.8794286.028058 2.0862857-.846996 2.388l-.078912.024v.2571428h8.782099l1.011835-2.8645714h-.278824l-.028058.0291429c-.983778.8468571-2.379655 1.2788571-3.719416 1.1622857 0 0-2.318278-.2211429-2.511175-.2331429v-4.55314283h1.469529c.619025 0 1.383601 0 1.667687.50571429l.02455.05657143h.256028v-2.35885715h-.203419l-.026305.00685715c-.224462.11314285-.547127.11314285-.857517.11314285h-2.330553v-3.52971428c.650591-.10457143 1.329239-.12514286 1.986845-.12514286.871546 0 1.715034.06171429 2.339321.76114286l.033319.04114285h.234984v-2.58342857h-.206927c-.278824.14742857-.597982.10114286-.94169.10114286"/><path d="m3.74659648 25.8075429.05786926.0257142c.62428662.2245715.61201132 1.056.60499686 1.7262858v.2245714 5.5577143.1937143c.00350723.6411428.01402891 1.5188571-.60499686 1.7382857l-.05786926.024v.1971428h3.04602766v-.1971428l-.06313011-.024c-.62077939-.228-.61376493-1.1005715-.60499686-1.7382857v-.1937143-5.5577143-.1988572c-.00876807-.6428571-.01578253-1.524.60499686-1.752l.06313011-.0257142v-.192h-3.04602766z"/><path d="m16.2272432 25.8.045594.0257143c.7382715.408.7382715.9342857.7382715 1.7331428v5.3794286l-5.3537837-6.6068571-.2156946-.3034286-.2051728-.3274286v-.0857143h-2.38666879v.1851429l.04559397.0257143c.74353237.4165714.74353237.96.74353237 1.7777143v5.8834285c0 .8245715 0 1.3662858-.75580767 1.7965715l-.04384035.0291428v.1834286h2.85313007v-.1834286l-.0473475-.0291428c-.7417788-.4234286-.7417788-.9497143-.7417788-1.7502857v-5.4942858l5.0100754 6.2108572c.64533.8177143 1.1170522 1.3371428 2.2481333 1.7108571l.122753.0394286v-8.3965714c0-.8177143 0-1.3611429.7347643-1.7777143l.0438403-.0257143v-.1851429h-2.835594z"/><path d="m24.9970673 29.7509143c-1.1538781-.5142857-2.2463797-1.0062857-2.2463797-1.8805714 0-.924 1.0013137-1.2514286 1.8518165-1.2514286.8557637 0 1.7571213.3531428 2.3024953.8982857l.1648397.1594286v-1.9525715l-.0718982-.0137142c-.7102137-.2211429-1.476543-.3308572-2.2726838-.3308572-1.79044 0-3.8754871.6925714-3.8754871 2.6537143 0 1.74 1.5624701 2.4274286 2.9460716 3.024 1.1538781.5074286 2.244626.984 2.244626 1.9834286 0 .9497143-1.2047328 1.4485714-2.0692646 1.4485714-1.1345883 0-2.3480892-.4491429-3.2424324-1.2017143l-.2139409-.1782857.5138089 2.1565714.0473476.0171429c.822445.2965714 1.744846.4457143 2.7321307.4457143 2.2744375 0 4.1315148-1.4057143 4.1315148-3.1405715 0-1.524-1.5624702-2.22-2.9425644-2.8371428"/><path d="m47.5662558 33.2840571-2.0815399-2.5594285c1.1784287-.3205715 2.3252923-1.3114286 2.3252923-2.6485715 0-1.4948571-1.2590949-2.4617142-3.2161283-2.4617142h-3.6790823v.1937142l.0631301.024c.6330547.2262858.6155186 1.0577143.6049969 1.728v.2245715 5.556.216c.0105217.636.0280578 1.5017143-.6049969 1.7177143l-.0631301.024v.1971428h3.067071v-.1971428l-.0613765-.024c-.6365619-.2211429-.631301-1.0971429-.6260402-1.74v-.1937143-6.5262857c.3700126-.0634286.6611125-.096.9469516-.1045715.9066185-.0411428 1.8500629.4885715 1.8500629 1.5377143 0 1.4417143-1.5887744 1.8874286-2.5322188 2.0245714l-.1402891.0205715 1.4712822 2.2062857 1.8395412 2.2251428c.4576933.5537143.9697486.7714286 1.822005.7714286h1.7010057l-.2928536-.1268571c-.8136769-.2657143-1.8167442-1.3834286-2.3936832-2.0845715"/><path d="m58.8072728 33.4455429-3.2512005-7.8308572h-2.535726v.1988572l.0648837.0188571c.1893904.0565714.2981144.1371429.3629982.2554286.1139849.2382857-.0368259.6017143-.1613325.924l-2.5462477 6.2262857-.0841735.2057143c-.2858391.7508571-.5786926 1.6028571-1.3380075 1.8891428l-.0473476-.0291428v.192h2.9530861v-.1988572l-.0526084-.0222857c-.4015776-.1457143-.4734758-.3188571-.4892583-.4731428-.0210434-.2331429.0911879-.5571429.2349843-.9274286l.7645757-2.0211429h3.6738215l.7926336 2.0211429.0718981.1748571c.3524765.8862857.3787807.96-.2349842 1.2291429l-.0578693.0222857v.1954286h3.2792583v-.192l-.0526084-.0257143c-.7540541-.3737143-1.0434004-1.0817143-1.3467756-1.8325714zm-2.9636078-2.8645715h-2.6970585l1.3555437-3.3754285z"/><path d="m67.8750358 25.8.045594.0257143c.7400251.408.7400251.9342857.7400251 1.7331428v5.3794286l-5.3520301-6.6068571-.2192018-.3034286-.2086801-.3274286v-.0857143h-2.3796543v.1851429l.0491012.0257143c.7330107.4165714.7330107.96.7330107 1.7777143v5.8834285c0 .8245715 0 1.3662858-.7540541 1.7965715l-.0455939.0291428v.1834286h2.8531301v-.1834286l-.0438404-.0291428c-.7365179-.4234286-.7365179-.9497143-.7365179-1.7502857v-5.4942858l5.0100754 6.2108572c.6400692.8177143 1.1082841 1.3371428 2.2376116 1.7108571l.1209994.0394286v-8.3965714c0-.8177143 0-1.3611429.7435324-1.7777143l.0420867-.0257143v-.1851429h-2.835594z"/><path d="m80.9945242 33.4095429c-.7505468.4165714-1.9044249.9188571-3.1652734.9188571-2.1323947 0-3.7404588-1.7245714-3.7404588-4.0114286 0-2.0794285 1.4081521-3.5348571 3.4353299-3.5348571.9259083 0 1.8728599.2845714 2.7461597.8211428l.1402891.0908572v-1.9302857l-.0754054-.0137143c-1.090748-.252-1.967555-.372-2.7654494-.372-3.1687806 0-5.3818416 2.124-5.3818416 5.1668571 0 3.1971429 2.2428724 5.184 5.8483029 5.184.8838215 0 1.6624262-.1491428 2.3182779-.4508571l.0298114-.012.8417348-1.8651429h-.2156946z"/><path d="m89.5365537 33.4071429c-.6365619.5451428-1.5081081.8622857-2.3971904.8622857l-.3261722-.0171429-1.8325267-.1662857v-3.3257143h1.1152985c.4875047 0 .9855311.0291429 1.1749214.3702857l.0263043.0445715h.1876367v-1.7451429h-.1332747l-.0438404.0137143c-.1595788.0754286-.3945631.0754286-.6242866.0754286h-1.7027592v-2.5765715c.4664613-.0737143.9662413-.0908571 1.4467316-.0908571.6418227 0 1.2573413.0497143 1.7132809.5571428l.022797.036h.177115v-1.9011428h-.1560716l-.0245506.0068571c-.1420428.0754286-.3349403.0685715-.5190698.0651429h-.1367819-4.9259019v.192l.0631301.0257143c.6383155.228.6277938 1.1091428.6207794 1.752v.1988571 5.556.1937143c.0070144.6428571.0175361 1.5188571-.6207794 1.74l-.0631301.024v.1971429h6.4497926l.7435323-2.1102858h-.2069264z"/><path d="m103.416585 34.6165714v-3.4714285c0-.2142858 0-.4388572.071898-.6l.008768-.168h-2.495393v.1902857l.059623.024c.590968.2331428.633055.8262857.633055 1.584v2.0571428c-.619026.168-1.30995.2571429-2.0026278.2571429-2.367379 0-4.2191954-1.7931429-4.2191954-4.0834286 0-2.2302857 1.6676869-3.7868571 4.0561093-3.7868571.5506349 0 1.9096859.0822857 2.6163919.8554285l.026305.0274286h.175361v-1.8565714l-.073652-.0137143c-.822445-.1714286-1.601049-.2537143-2.3814078-.2537143-3.7842991 0-6.3235323 2.1051429-6.3235323 5.2354286 0 3.1062857 2.4497988 5.1137143 6.2270836 5.1137143 1.2029795 0 2.3375675-.2057143 3.5335325-.4268572l.203419-.036-.04384-.1011428c-.073652-.1645715-.071898-.3565715-.071898-.5468572"/><path d="m112.371239 33.2840571-2.085047-2.5594285c1.178429-.3205715 2.325293-1.3114286 2.325293-2.6485715 0-1.4948571-1.260849-2.4617142-3.214375-2.4617142h-3.679082v.1937142l.06313.024c.627794.2262858.613765 1.0577143.601489 1.728v.2245715 5.556.216c.010522.636.026305 1.5017143-.601489 1.7177143l-.06313.024v.1971428h3.063563v-.1971428l-.06313-.024c-.634808-.2211429-.624286-1.0971429-.617272-1.74v-.1937143-6.5262857c.364752-.0634286.657605-.096.939937-.1045715.904865-.0497143 1.850063.4885715 1.850063 1.5377143 0 1.4417143-1.588774 1.8874286-2.532219 2.0245714l-.136781.0205715 1.467775 2.2062857 1.839541 2.2251428c.459447.5537143.967995.7714286 1.822005.7714286h1.702759l-.268303-.168c-.93643-.576-1.841295-1.3422857-2.414727-2.0434286"/><path d="m120.372104 25.3638857h-.026305c-3.156505-.0737143-5.748346 2.2662857-5.748346 5.16 0 2.9657143 2.407712 5.2045714 5.594028 5.2045714 3.165274 0 5.643131-2.3194285 5.643131-5.2782857 0-2.8542857-2.400698-5.0862857-5.462508-5.0862857m-.108724 9.1251429c-2.3288 0-3.76501-2.1274286-3.76501-4.0988572 0-2.2302857 1.534413-3.7851428 3.738705-3.7851428 2.397191 0 3.693112 2.1325714 3.693112 4.1382857 0 2.2045714-1.506355 3.7457143-3.666807 3.7457143"/><path d="m136.653008 25.8325714.080666-.0291428-.061377-.1885715h-3.024984v.192l.057869.0257143c.627794.2297143.617272 1.1022857.608504 1.7417143v.1937143 4.5034286c0 .492 0 .8228571-.303375 1.2205714-.445418.6257143-1.241559.9977143-2.12538.9977143-1.548441 0-2.302495-.9137143-2.302495-2.7857143v-3.936-.1937143c-.010522-.6394286-.024551-1.512.601489-1.7417143l.06313-.0257143v-.192h-3.056549v.192l.066637.0257143c.627794.2262857.612012 1.0885715.60149 1.7177143l-.001754.2177143v4.0491429c0 1.0251428-.003507 1.9988571.797895 2.8491428.633054.6805714 1.646643 1.0611429 2.791753 1.0611429.927662 0 2.130641-.2794286 2.867159-1.0525715v.8211429h2.397191v-.1988571l-.057869-.0222858c-.638316-.2314285-.627794-1.104-.62078-1.7417142l.003507-.192v-5.5577143l-.003507-.1988572c-.007014-.6428571-.017536-1.5222857.62078-1.752"/><path d="m142.355585 25.6150286h-3.763256v.192l.06313.0257143c.624287.24.615519 1.116.604997 1.752l-.003507.1988571v5.5577143l.003507.192c.010522.6445714.01929 1.5205714-.617272 1.7417143l-.057869.0222857v.1988571h3.181056v-.1885714l-.050855-.024c-.733011-.4097143-.733011-.9394286-.733011-1.7382857v-6.612c.320912-.0548572.633055-.0822857.966242-.0822857.761068 0 2.046467.228 2.046467 1.7297143 0 1.3302857-1.311703 2.1051428-2.616392 2.1788571l-.033319.1714286c.313897.1474285.678649.2142857 1.141603.2142857 1.674702 0 3.409026-1.068 3.409026-2.8611429 0-1.6234285-1.388862-2.6691428-3.540547-2.6691428"/><path d="m38.1030528 33.5334857.0035072-.192v-5.5577143l-.0035072-.1988571c-.0105217-.6428572-.0192898-1.5222857.6190258-1.752l.0491012-.0171429v-.2005714h-3.058303v.192l.0666373.0257143c.6190258.2297143.6067505 1.1022857.6049969 1.74v.1954286 4.5051428c0 .4902857 0 .8211429-.3016216 1.2188572-.4506788.6257142-1.2380516.9977142-2.1271339.9977142-1.5501948 0-2.3060025-.9154285-2.3060025-2.7857142v-3.936-.1954286c-.0157825-.6377143-.0192898-1.5102857.6085041-1.74l.0578692-.0257143v-.192h-3.0530421v.192l.0613765.0257143c.6295475.2262857.6137649 1.0885714.6049969 1.7177143l-.0017536.2177143v4.0491428c-.0035073 1.0251429-.0035073 1.9988572.7943871 2.8491429.6330547.6805714 1.6501509 1.0611428 2.7952609 1.0611428.9259082 0 2.1271339-.2794285 2.867159-1.0525714v.8211429h2.3971904v-.1988572l-.0596228-.0222857c-.6383156-.2331429-.6295475-1.104-.6190258-1.7417143"/></g></svg>